<svg xmlns="http://www.w3.org/2000/svg" xmlns:xlink="http://www.w3.org/1999/xlink" viewBox="0 0 418.86 307.9">
  <defs>
    <style>
      .cls-1 {
        fill: none;
      }

      .cls-2 {
        isolation: isolate;
      }

      .cls-10, .cls-22, .cls-3, .cls-36, .cls-38 {
        mix-blend-mode: multiply;
      }

      .cls-3 {
        fill: url(#Degradado_sin_nombre_44);
      }

      .cls-4 {
        fill: url(#Degradado_sin_nombre_13);
      }

      .cls-28, .cls-37, .cls-39, .cls-45, .cls-5, .cls-6, .cls-7 {
        mix-blend-mode: overlay;
      }

      .cls-5 {
        fill: url(#Degradado_sin_nombre_12);
      }

      .cls-6, .cls-7 {
        opacity: 0.5;
      }

      .cls-6 {
        fill: url(#Degradado_sin_nombre_12-2);
      }

      .cls-7 {
        fill: url(#Degradado_sin_nombre_12-3);
      }

      .cls-8 {
        fill: url(#Degradado_sin_nombre_11);
      }

      .cls-9 {
        fill: #171c91;
      }

      .cls-10 {
        fill: #499eaa;
      }

      .cls-11 {
        fill: #b3615f;
      }

      .cls-12 {
        fill: url(#Degradado_sin_nombre_7);
      }

      .cls-13 {
        fill: url(#Degradado_sin_nombre_7-2);
      }

      .cls-14 {
        fill: #f1a17b;
      }

      .cls-15 {
        fill: url(#Degradado_sin_nombre_7-3);
      }

      .cls-16 {
        fill: #fff;
      }

      .cls-17 {
        fill: #442323;
      }

      .cls-18 {
        fill: #562e2e;
      }

      .cls-19 {
        fill: #853d1b;
      }

      .cls-20 {
        fill: #754545;
      }

      .cls-21 {
        fill: url(#Degradado_sin_nombre_10);
      }

      .cls-22, .cls-34 {
        fill: #ced4e4;
      }

      .cls-23 {
        fill: url(#Degradado_sin_nombre_6);
      }

      .cls-24 {
        fill: url(#Degradado_sin_nombre_6-2);
      }

      .cls-25 {
        fill: url(#Degradado_sin_nombre_6-3);
      }

      .cls-26 {
        fill: #4790f0;
      }

      .cls-27 {
        fill: #81858c;
      }

      .cls-28 {
        fill: url(#Degradado_sin_nombre_8);
      }

      .cls-29 {
        fill: url(#Degradado_sin_nombre_7-4);
      }

      .cls-30 {
        fill: url(#Degradado_sin_nombre_7-5);
      }

      .cls-31 {
        clip-path: url(#clip-path);
      }

      .cls-32 {
        fill: #641cca;
      }

      .cls-33 {
        fill: #410051;
      }

      .cls-35 {
        fill: #f6f7fc;
      }

      .cls-36 {
        fill: url(#Degradado_sin_nombre_6-4);
      }

      .cls-37 {
        fill: url(#Degradado_sin_nombre_3);
      }

      .cls-38 {
        fill: url(#Degradado_sin_nombre_6-5);
      }

      .cls-40 {
        fill: url(#Degradado_sin_nombre_3-2);
      }

      .cls-41 {
        fill: url(#Degradado_sin_nombre_3-3);
      }

      .cls-42 {
        fill: url(#Degradado_sin_nombre_3-4);
      }

      .cls-43 {
        fill: url(#Degradado_sin_nombre_3-5);
      }

      .cls-44 {
        fill: url(#Degradado_sin_nombre_4);
      }

      .cls-45 {
        fill: url(#Degradado_sin_nombre_3-6);
      }

      .cls-46 {
        fill: url(#Degradado_sin_nombre_2);
      }
    </style>
    <linearGradient id="Degradado_sin_nombre_44" data-name="Degradado sin nombre 44" x1="209.43" y1="231.29" x2="209.43" y2="306.75" gradientUnits="userSpaceOnUse">
      <stop offset="0"/>
      <stop offset="1" stop-color="#f0f1f9" stop-opacity="0"/>
    </linearGradient>
    <linearGradient id="Degradado_sin_nombre_13" data-name="Degradado sin nombre 13" x1="91.13" y1="69.98" x2="336.4" y2="280.21" gradientUnits="userSpaceOnUse">
      <stop offset="0" stop-color="#5bc2b2"/>
      <stop offset="1" stop-color="#499eaa"/>
    </linearGradient>
    <linearGradient id="Degradado_sin_nombre_12" data-name="Degradado sin nombre 12" x1="76.34" y1="171.66" x2="343.19" y2="171.66" gradientUnits="userSpaceOnUse">
      <stop offset="0" stop-color="#d3edf0"/>
      <stop offset="1" stop-color="#fff"/>
    </linearGradient>
    <linearGradient id="Degradado_sin_nombre_12-2" x1="91.76" y1="101.01" x2="182.2" y2="267.81" xlink:href="#Degradado_sin_nombre_12"/>
    <linearGradient id="Degradado_sin_nombre_12-3" x1="324.27" y1="259.03" x2="260.3" y2="151.58" xlink:href="#Degradado_sin_nombre_12"/>
    <linearGradient id="Degradado_sin_nombre_11" data-name="Degradado sin nombre 11" x1="70.13" y1="262.64" x2="383.95" y2="273.44" gradientUnits="userSpaceOnUse">
      <stop offset="0" stop-color="#d3edf0"/>
      <stop offset="1" stop-color="#5fcab2"/>
    </linearGradient>
    <linearGradient id="Degradado_sin_nombre_7" data-name="Degradado sin nombre 7" x1="192.17" y1="83.72" x2="283.11" y2="96.35" gradientUnits="userSpaceOnUse">
      <stop offset="0" stop-color="#f1a17b"/>
      <stop offset="1" stop-color="#b3615f"/>
    </linearGradient>
    <linearGradient id="Degradado_sin_nombre_7-2" x1="238.99" y1="96.17" x2="198.01" y2="119.89" xlink:href="#Degradado_sin_nombre_7"/>
    <linearGradient id="Degradado_sin_nombre_7-3" x1="181.89" y1="54.56" x2="314.1" y2="100.57" xlink:href="#Degradado_sin_nombre_7"/>
    <linearGradient id="Degradado_sin_nombre_10" data-name="Degradado sin nombre 10" x1="281.96" y1="344.81" x2="178.77" y2="119.08" gradientUnits="userSpaceOnUse">
      <stop offset="0" stop-color="#aab1c1"/>
      <stop offset="0.12" stop-color="#b6bcca"/>
      <stop offset="0.48" stop-color="#d5d9e4"/>
      <stop offset="0.79" stop-color="#e9ebf3"/>
      <stop offset="1" stop-color="#f0f1f9"/>
    </linearGradient>
    <linearGradient id="Degradado_sin_nombre_6" data-name="Degradado sin nombre 6" x1="224.76" y1="122.86" x2="234.99" y2="129.76" gradientUnits="userSpaceOnUse">
      <stop offset="0" stop-color="#3b7ee9"/>
      <stop offset="1" stop-color="#509af6"/>
    </linearGradient>
    <linearGradient id="Degradado_sin_nombre_6-2" x1="182.13" y1="124.04" x2="168.93" y2="131.71" xlink:href="#Degradado_sin_nombre_6"/>
    <linearGradient id="Degradado_sin_nombre_6-3" x1="205.83" y1="146.09" x2="206.05" y2="166.78" xlink:href="#Degradado_sin_nombre_6"/>
    <linearGradient id="Degradado_sin_nombre_8" data-name="Degradado sin nombre 8" x1="231.11" y1="266.07" x2="175.66" y2="142.2" gradientUnits="userSpaceOnUse">
      <stop offset="0"/>
      <stop offset="0.09" stop-color="#090909"/>
      <stop offset="0.23" stop-color="#202122"/>
      <stop offset="0.41" stop-color="#47474a"/>
      <stop offset="0.62" stop-color="#7d7d81"/>
      <stop offset="0.85" stop-color="#c0c1c8"/>
      <stop offset="1" stop-color="#f0f1f9"/>
    </linearGradient>
    <linearGradient id="Degradado_sin_nombre_7-4" x1="128.25" y1="239.12" x2="111.6" y2="192.17" xlink:href="#Degradado_sin_nombre_7"/>
    <linearGradient id="Degradado_sin_nombre_7-5" x1="291.23" y1="233.36" x2="316.89" y2="195.42" xlink:href="#Degradado_sin_nombre_7"/>
    <clipPath id="clip-path">
      <path class="cls-1" d="M285.67,198.41l-.85.29,0,.12-26.41,8.86-3.72.41a2.63,2.63,0,0,0-2.1,1.54l-1.56.53-7.32.32,6.2-3.79,33.72-11.44.06.16.83-.28a1.73,1.73,0,0,1,1.11,3.28Z"/>
    </clipPath>
    <linearGradient id="Degradado_sin_nombre_6-4" x1="394.11" y1="280.64" x2="349.16" y2="147.86" xlink:href="#Degradado_sin_nombre_6"/>
    <linearGradient id="Degradado_sin_nombre_3" data-name="Degradado sin nombre 3" x1="405.94" y1="253.39" x2="356.56" y2="184.98" gradientUnits="userSpaceOnUse">
      <stop offset="0"/>
      <stop offset="0.33" stop-color="#59595c"/>
      <stop offset="0.66" stop-color="#aaabb0"/>
      <stop offset="0.89" stop-color="#dddde5"/>
      <stop offset="1" stop-color="#f0f1f9"/>
    </linearGradient>
    <linearGradient id="Degradado_sin_nombre_6-5" x1="100.02" y1="158.46" x2="50.68" y2="78.44" xlink:href="#Degradado_sin_nombre_6"/>
    <linearGradient id="Degradado_sin_nombre_3-2" x1="97.8" y1="165.03" x2="60.44" y2="78.08" xlink:href="#Degradado_sin_nombre_3"/>
    <linearGradient id="Degradado_sin_nombre_3-3" x1="103.25" y1="162.69" x2="65.9" y2="75.74" xlink:href="#Degradado_sin_nombre_3"/>
    <linearGradient id="Degradado_sin_nombre_3-4" x1="79.12" y1="173.05" x2="41.77" y2="86.1" xlink:href="#Degradado_sin_nombre_3"/>
    <linearGradient id="Degradado_sin_nombre_3-5" x1="86.53" y1="169.87" x2="49.17" y2="82.92" xlink:href="#Degradado_sin_nombre_3"/>
    <linearGradient id="Degradado_sin_nombre_4" data-name="Degradado sin nombre 4" x1="171.37" y1="251.23" x2="243.17" y2="290.34" gradientUnits="userSpaceOnUse">
      <stop offset="0" stop-color="#ed7a79"/>
      <stop offset="0.34" stop-color="#e47373"/>
      <stop offset="0.89" stop-color="#cc6161"/>
      <stop offset="1" stop-color="#c65d5d"/>
    </linearGradient>
    <linearGradient id="Degradado_sin_nombre_3-6" x1="249.15" y1="314.03" x2="133.68" y2="190.55" xlink:href="#Degradado_sin_nombre_3"/>
    <linearGradient id="Degradado_sin_nombre_2" data-name="Degradado sin nombre 2" x1="-478.37" y1="121.92" x2="-449.05" y2="121.92" gradientTransform="translate(90.68 -191.56) rotate(-90)" gradientUnits="userSpaceOnUse">
      <stop offset="0" stop-color="#dde0ee"/>
      <stop offset="1" stop-color="#fff"/>
    </linearGradient>
  </defs>
  <title>Asset 2</title>
  <g class="cls-2">
    <g id="Layer_2" data-name="Layer 2">
      <g id="OBJECTS">
        <g>
          <g>
            <polygon class="cls-3" points="352.22 260.3 65.55 260.3 0 307.9 418.86 307.9 352.22 260.3"/>
            <g>
              <g>
                <g>
                  <path class="cls-4" d="M350.61,94.27V249.05a6.18,6.18,0,0,1-6.18,6.19H75.1a6.18,6.18,0,0,1-6.18-6.19V94.27a6.18,6.18,0,0,1,6.18-6.18H344.43A6.18,6.18,0,0,1,350.61,94.27Z"/>
                  <path class="cls-5" d="M343.19,98.85V244.47a3.34,3.34,0,0,1-3.35,3.34H79.68a3.34,3.34,0,0,1-3.34-3.34V98.85a3.35,3.35,0,0,1,3.34-3.35H339.84A3.36,3.36,0,0,1,343.19,98.85Z"/>
                  <path class="cls-6" d="M212.51,255.24H149.18L68.92,127.35V94.27a6.18,6.18,0,0,1,6.18-6.18h39Z"/>
                  <path class="cls-7" d="M350.61,234.34v14.71a6.19,6.19,0,0,1-6.18,6.19H287.27L180.64,88.09l-.08-.13h83.72l.08.13Z"/>
                </g>
                <g>
                  <polygon class="cls-8" points="77.13 255.24 25.33 277.88 395.69 277.88 342.39 255.24 77.13 255.24"/>
                  <path class="cls-9" d="M395.69,277.88l-1.83,4.58a4.66,4.66,0,0,1-4.32,2.92H31.48a4.65,4.65,0,0,1-4.31-2.92l-1.84-4.58Z"/>
                  <polygon class="cls-10" points="76.34 262.22 109.49 261.98 142.64 261.9 208.94 261.74 275.24 261.9 308.38 261.98 341.53 262.22 308.38 262.45 275.24 262.54 208.94 262.7 142.64 262.54 109.49 262.45 76.34 262.22"/>
                  <polygon class="cls-10" points="51.6 270.05 90.94 269.81 130.27 269.73 208.94 269.57 287.6 269.73 326.94 269.81 366.27 270.05 326.94 270.28 287.6 270.37 208.94 270.53 130.27 270.37 90.94 270.28 51.6 270.05"/>
                </g>
              </g>
              <g>
                <path class="cls-11" d="M106.71,212.18a28.93,28.93,0,0,0,3.77.36,19.79,19.79,0,0,0,3.69-.24,25.59,25.59,0,0,0,3.62-.83,35.52,35.52,0,0,0,3.55-1.32,11.34,11.34,0,0,1-3.24,2.14,14.14,14.14,0,0,1-3.76,1.11,18.47,18.47,0,0,1-2,.17,14.4,14.4,0,0,1-2-.16A10.86,10.86,0,0,1,106.71,212.18Z"/>
                <g>
                  <g>
                    <path class="cls-12" d="M228.29,89.88c-.32,2-.59,4-.78,6q-.44,4.47-.44,9v24.09a10.69,10.69,0,0,1-.22,2.26c-2.59,12-18.68,14-18.68,14A38.18,38.18,0,0,1,192.31,142a20,20,0,0,1-11.67-16.39l-6.21-67.3c-1.91-33.49,25.37-32.78,25.37-32.78,29.42,0,30.86,26.8,30.86,26.8A192,192,0,0,1,228.29,89.88Z"/>
                    <path class="cls-13" d="M227.51,95.83q-.44,4.47-.44,9v23c-11,4.26-29.19,5.14-44-24C183.57,104.15,209.34,124.43,227.51,95.83Z"/>
                    <g>
                      <path class="cls-14" d="M181.41,71.3c0,5.37-2.68,9.72-6,9.72s-6-4.35-6-9.72,2.69-9.72,6-9.72S181.41,65.93,181.41,71.3Z"/>
                      <path class="cls-15" d="M236,71.3c0,5.37-2.68,9.72-6,9.72s-6-4.35-6-9.72,2.69-9.72,6-9.72S236,65.93,236,71.3Z"/>
                    </g>
                    <g>
                      <path class="cls-16" d="M190,89.11s9.7,3.6,24.32,0C214.32,89.11,202.07,106.91,190,89.11Z"/>
                      <path class="cls-17" d="M196.56,61.58a21.69,21.69,0,0,0-4-1.75,16.65,16.65,0,0,0-4.18-.82,15.89,15.89,0,0,0-4.24.23,19.47,19.47,0,0,0-2.11.48c-.71.19-1.38.48-2.11.68a17,17,0,0,1,1.91-1.19,12,12,0,0,1,2.11-.82,8.08,8.08,0,0,1,1.1-.29l1.13-.17a8.86,8.86,0,0,1,1.15-.06l.57,0,.58,0a14.59,14.59,0,0,1,2.26.37l1.09.33c.36.13.71.28,1.06.43A11.28,11.28,0,0,1,196.56,61.58Z"/>
                      <path class="cls-17" d="M206.82,61.58A11.28,11.28,0,0,1,210.5,59c.35-.15.7-.3,1.06-.43l1.09-.33a14.52,14.52,0,0,1,2.27-.37l.57,0,.57,0a8.77,8.77,0,0,1,1.15.06l1.13.17a8.63,8.63,0,0,1,1.11.29,11.88,11.88,0,0,1,2.1.82,16.11,16.11,0,0,1,1.91,1.19c-.73-.2-1.4-.49-2.11-.68a19.47,19.47,0,0,0-2.11-.48A15.89,15.89,0,0,0,215,59a16.73,16.73,0,0,0-4.18.82A21.69,21.69,0,0,0,206.82,61.58Z"/>
                      <path class="cls-18" d="M217.17,65.43a2.06,2.06,0,1,0-2,2.39A2.23,2.23,0,0,0,217.17,65.43Z"/>
                      <path class="cls-18" d="M191.72,65.43a2.06,2.06,0,1,0-2,2.39A2.23,2.23,0,0,0,191.72,65.43Z"/>
                      <path class="cls-19" d="M197,81.79a13.37,13.37,0,0,0,4.74.74,15.89,15.89,0,0,0,2.36-.25c.2,0,.4-.07.6-.11l.6-.12c.41-.08.81-.2,1.24-.26a8.63,8.63,0,0,1-1,.77,9,9,0,0,1-1.17.57,8,8,0,0,1-2.58.52,7.2,7.2,0,0,1-2.6-.42A5,5,0,0,1,197,81.79Z"/>
                      <path class="cls-19" d="M203.82,61.88a38,38,0,0,1,.8,4c.22,1.35.36,2.71.5,4.06s.21,2.73.25,4.09a37.81,37.81,0,0,1-.07,4.12,38,38,0,0,1-.8-4c-.22-1.35-.36-2.71-.5-4.06s-.21-2.73-.24-4.09A35.44,35.44,0,0,1,203.82,61.88Z"/>
                    </g>
                  </g>
                  <g>
                    <path class="cls-18" d="M217.17,35.88l4.91,4.7a7.33,7.33,0,0,1,2.22,4.53l.48,4.52a14.31,14.31,0,0,0,1.12,4.17L230,63s14.75-26.78-6.54-36.9C223.46,26.14,218.12,27.83,217.17,35.88Z"/>
                    <path class="cls-18" d="M181.41,39.11l-2.69,4.77a6.83,6.83,0,0,0-.84,4.13l.29,2.55a15.29,15.29,0,0,1-.77,6.81l-2,5.67s-11.69-13.79-3.8-30C171.62,33,177.52,28.67,181.41,39.11Z"/>
                    <path class="cls-17" d="M217.17,35.88s-10.25,5.06-28,2.81a16.15,16.15,0,0,0-7.36,1.85A5,5,0,0,1,175.06,39c-4-6.38-8.28-17.41,5.05-23.34q1.2-.54,2.37-1.17c3.15-1.7,12.69-6,20.78,0a11.6,11.6,0,0,0,5.09,2.13c5.66.83,17.05,3.32,15.11,9.55C223.46,26.14,221.61,33.32,217.17,35.88Z"/>
                    <path class="cls-20" d="M176.24,26.14a11.4,11.4,0,0,0,3.56,3.78,14.54,14.54,0,0,0,4.69,2.13,23.41,23.41,0,0,0,10.3-.13,50.54,50.54,0,0,1,10.48-1.49,34.75,34.75,0,0,1,5.3.3,22.25,22.25,0,0,1,5.1,1.39A29.1,29.1,0,0,0,205.3,31,54.41,54.41,0,0,0,195,32.66a23.05,23.05,0,0,1-10.61,0,15,15,0,0,1-4.77-2.39A11.06,11.06,0,0,1,176.24,26.14Z"/>
                    <path class="cls-20" d="M180.37,21a8,8,0,0,0,3.17,3.18,11.75,11.75,0,0,0,4.23,1.45,21.05,21.05,0,0,0,4.49.15l4.59-.52a56.51,56.51,0,0,1,9.29.16,29,29,0,0,1,9,2.16,27.93,27.93,0,0,0-4.5-.95,43.42,43.42,0,0,0-4.56-.43,82.31,82.31,0,0,0-9.16.08c-1.5.16-3,.32-4.6.46a19.53,19.53,0,0,1-4.7-.34,12.08,12.08,0,0,1-4.35-1.81A7.7,7.7,0,0,1,180.37,21Z"/>
                  </g>
                </g>
                <g>
                  <path class="cls-21" d="M313.38,187.18a49.74,49.74,0,0,0-18.88.49h0A24.81,24.81,0,0,0,282.71,194l-2.82-6.18L271,168.45a1.27,1.27,0,0,0-2.47.39l.13,9.77.22,16.75.23,18.11.12,9.32.33,25.07H146.2c0-5.51.28-12.94.63-21.11.42-9.34.95-19.64,1.3-29.08.34-9.07.49-17.37.23-23.28a1.2,1.2,0,0,0-.44-.93,1.28,1.28,0,0,0-2.06.69l-3,12.44L141,194.28a61.34,61.34,0,0,0-13-5.48,88.07,88.07,0,0,0-22.5-3.55l3.42-8.92,17.15-44.81a28,28,0,0,1,19.54-17.22l33.23-8.08s-1,33.51,24.78,36.74c0,0,27.51,3.41,23.44-38.16l36.2,9.91a43.14,43.14,0,0,1,27.83,23.68l19.11,41.84Z"/>
                  <path class="cls-22" d="M236.61,213.05s-67.47,11.88-90.4,34.81c0-11.81,1.27-32.49,1.92-50.19C154.68,203.12,179.33,219.22,236.61,213.05Z"/>
                  <path class="cls-22" d="M268.84,189.88l.76,58H191.41s18.49-4.1,44.33-19.85A75.77,75.77,0,0,0,261,202.77Z"/>
                  <path class="cls-23" d="M217.17,139.26s10.34.1,19.19,10.77c0,0,1.83-25.51-4.53-43.92l-4.76-1.31S228.23,127.42,217.17,139.26Z"/>
                  <path class="cls-24" d="M192.69,139.26s-10.34.1-19.19,10.77c0,0-5.86-24.22.5-42.63l4.85-1.18S179.88,129.05,192.69,139.26Z"/>
                  <path class="cls-25" d="M201.12,142.53v31.35h9.68V142.25S205.46,143.88,201.12,142.53Z"/>
                  <path class="cls-26" d="M142.87,186.59,141,194.28c-15.6-9-35.5-9-35.5-9l3.4-8.91S132.9,180.84,142.87,186.59Z"/>
                  <path class="cls-26" d="M313.38,187.18s-20-3.87-30.67,6.78l-2.83-6.19s10.85-7.54,30.33-7.54Z"/>
                  <path class="cls-22" d="M294.5,187.68h0A24.84,24.84,0,0,0,282.71,194l-2.83-6.19L271,168.45a1.27,1.27,0,0,0-2.46.39l.36-18.81S290.6,166.74,294.5,187.68Z"/>
                  <path class="cls-27" d="M269.63,133.43c.16,3.52.19,7,.17,10.52,0,1.75,0,3.5-.05,5.25l-.11,5.24-.18,5.24c-.08,1.75-.12,3.5-.23,5.25-.16,3.49-.36,7-.68,10.49-.38-3.5-.55-7-.63-10.51-.05-1.75,0-3.51-.05-5.26s.05-3.5.09-5.25.12-3.51.21-5.26.18-3.49.33-5.24C268.76,140.4,269.1,136.91,269.63,133.43Z"/>
                  <path class="cls-22" d="M147.91,173.46a1.27,1.27,0,0,0-2,.69l-3,12.44L141,194.28a61.63,61.63,0,0,0-13-5.48c1.72-9.55,17.36-36.12,17.36-36.12A105.16,105.16,0,0,1,147.91,173.46Z"/>
                  <path class="cls-27" d="M141.11,135.73a88.16,88.16,0,0,1,3.59,10.76c.49,1.83.92,3.68,1.34,5.52.22.92.38,1.86.57,2.79s.36,1.86.51,2.79c.32,1.87.58,3.75.82,5.63.12.93.19,1.88.28,2.82s.19,1.89.22,2.84l.15,2.84,0,2.84V176l-.07,1.42c0,.95-.1,1.89-.17,2.83-.41-3.77-.72-7.5-1.23-11.23s-1-7.43-1.67-11.13c-.14-.93-.3-1.85-.48-2.77l-.5-2.77-.52-2.77c-.2-.92-.37-1.84-.55-2.77C142.68,143.11,141.9,139.43,141.11,135.73Z"/>
                  <path class="cls-28" d="M269.6,247.86H146.2c0-5.51.28-12.94.63-21.11a147.53,147.53,0,0,1,15.58-13.22c6.23-4.51,12.34-6.95,20.15-6.76,10,.23,18.95,1.49,27.1-5.63,4.39-3.83,7.78-8.67,11.77-12.92,8.56-9.14,19.85-11.3,31.94-11.3,4.25,0,10.63-.28,15.33,1.69l.22,16.75.23,18.11.12,9.32Z"/>
                </g>
                <g>
                  <path class="cls-29" d="M141,194.28A177.92,177.92,0,0,0,131.43,220s-20.94,9-37.15,4.15c0,0,8.83-29.53,14-38.84C108.31,185.35,131.54,183.05,141,194.28Z"/>
                  <g>
                    <path class="cls-14" d="M143.64,233.14l-4.1,4.8a8,8,0,0,1-2.88,2.14l-5.75,2.5a7.77,7.77,0,0,1-3.19.67h-3.15a6.91,6.91,0,0,0-2,.29h0a7,7,0,0,0-2.17,1.1l-5,3.8a8.25,8.25,0,0,1-5.75,1.63l-5.41-.53a8.23,8.23,0,0,1-7.14-6l-.06-.21-3.33-12.2a10.1,10.1,0,0,1,2.36-9.57c1.93-2.06,4.45-4.17,7.17-4.95a4.93,4.93,0,0,0,3.47-4.41l.15-2-1.72-18.93a4.24,4.24,0,0,1,3.41-4.55,3.89,3.89,0,0,1,.83-.08,4.25,4.25,0,0,1,4.21,3.79l.39,3.68a25.55,25.55,0,0,0,2.12,7.77,25.19,25.19,0,0,0,2.27,4l2.73,4,.24.35s8,.46,6.67,6.67c0,0,10.11-4.37,8.73,3.22,0,0,7.36-.46,4.37,6.66C141.11,226.7,147.08,227.39,143.64,233.14Z"/>
                    <path class="cls-11" d="M122.59,243.54a7,7,0,0,0-2.17,1.1l-5,3.8a8.25,8.25,0,0,1-5.75,1.63l-5.41-.53a8.23,8.23,0,0,1-7.14-6l-.06-.21a30.84,30.84,0,0,1,9.09-19.12C107.56,246,121.76,243.7,122.59,243.54Z"/>
                    <path class="cls-11" d="M128,216.82a17.31,17.31,0,0,1-3.56,2.87,25.77,25.77,0,0,1-4.08,2.1,26.68,26.68,0,0,1-4.37,1.37,22.35,22.35,0,0,1-4.53.55c1.44-.49,2.88-.9,4.29-1.39l1.06-.36,1.05-.39c.7-.25,1.39-.53,2.08-.81,1.38-.55,2.73-1.18,4.08-1.83S126.69,217.58,128,216.82Z"/>
                    <path class="cls-11" d="M136.74,220a25.25,25.25,0,0,1-3.79,4.53,31.28,31.28,0,0,1-4.65,3.69A25.2,25.2,0,0,1,123,230.9l-1.42.46c-.48.13-1,.23-1.45.34l-.72.15-.74.08-1.47.13a39.91,39.91,0,0,0,5.47-2c.45-.17.87-.41,1.3-.62s.87-.41,1.28-.67l1.26-.71,1.22-.77a51.5,51.5,0,0,0,4.67-3.4C133.87,222.69,135.33,221.41,136.74,220Z"/>
                    <path class="cls-11" d="M141.11,226.7a18.36,18.36,0,0,1-3.76,5.12c-.39.37-.77.74-1.18,1.09l-1.26,1c-.44.3-.9.59-1.35.88s-.93.53-1.4.8l-.71.37-.75.31c-.5.19-1,.44-1.5.59l-1.54.45a12.14,12.14,0,0,1-1.57.32,20,20,0,0,1-3.18.32,12,12,0,0,1-1.59-.06c-.53,0-1.06-.08-1.58-.13.52-.07,1.05-.13,1.57-.18a13.37,13.37,0,0,0,1.55-.18,27.74,27.74,0,0,0,3-.62,25.43,25.43,0,0,0,5.75-2.18,26.36,26.36,0,0,0,5.11-3.42A30.76,30.76,0,0,0,141.11,226.7Z"/>
                    <path class="cls-11" d="M121.34,210.15c-5.51,4.61-12.48,2.62-12.48,2.62,3.88-1.61,6.09-6.93,7.24-10.94a25.19,25.19,0,0,0,2.27,4Z"/>
                  </g>
                </g>
                <g>
                  <path class="cls-30" d="M311,186.84s16.93,28.71,14.86,47.46l-31.38-16s-7.82-15.81-11.75-24.39C282.72,194,290.86,177.62,311,186.84Z"/>
                  <g>
                    <g>
                      <path class="cls-14" d="M325.85,234.31a5.48,5.48,0,0,1-1.84,3.34,23.14,23.14,0,0,1-3.11,2.26c-10.78,6.62-23.44,2.82-23.44,2.82-5.92-1.18-12.09-7.11-12.09-7.11-3.56,0-8.42-3.56-8.42-3.56l-13.4-5.36c-6.87-2.51-3.08-6.43-3.08-6.43h-2.31a2.55,2.55,0,0,1-.3-5.08l7.83-.91-10.92-1a2.64,2.64,0,0,1-1.69-.84,2.61,2.61,0,0,1,1.64-4.34l24.49-2.7-15.87-1.69a3.44,3.44,0,0,1-2.22-1.13,3.48,3.48,0,0,1,2.39-5.8l13.71-.8a11.5,11.5,0,0,1,6,1.27l7.78,4a5.35,5.35,0,0,1,2.88,4.4l.59,8.81a2.5,2.5,0,0,0,2.5,2.34h4.53a88.67,88.67,0,0,0,9-.93,14,14,0,0,1,9.17,1.74C326.79,221.9,326.45,230.41,325.85,234.31Z"/>
                      <path class="cls-11" d="M265.69,214.28a34.6,34.6,0,0,1,4.32,0c1.43.08,2.86.23,4.28.41s2.84.44,4.24.76a20.1,20.1,0,0,1,4.13,1.33c-1.44-.18-2.85-.3-4.27-.47s-2.83-.32-4.25-.51-2.83-.4-4.24-.66S267.09,214.65,265.69,214.28Z"/>
                      <path class="cls-11" d="M260.47,220.27a50.48,50.48,0,0,1,5.9.07c2,.11,3.91.32,5.86.58s3.88.63,5.8,1.08a41.73,41.73,0,0,1,5.65,1.71c-2-.27-3.88-.57-5.81-.85l-5.8-.83C268.21,221.48,264.34,221,260.47,220.27Z"/>
                      <path class="cls-11" d="M270,204.4a27.06,27.06,0,0,1,4.5,0,37.37,37.37,0,0,1,4.47.55,30.57,30.57,0,0,1,4.37,1.15,16.4,16.4,0,0,1,4,2c-1.44-.45-2.86-.81-4.29-1.16q-.56-.1-1.08-.24l-1.09-.22c-.71-.15-1.44-.29-2.17-.42-1.44-.29-2.9-.52-4.36-.79S271.42,204.71,270,204.4Z"/>
                      <path class="cls-11" d="M320.9,239.91c-10.78,6.62-23.44,2.82-23.44,2.82-5.92-1.18-12.09-7.11-12.09-7.11a23.25,23.25,0,0,0,7.09-14.56S289.27,247.86,320.9,239.91Z"/>
                    </g>
                    <g class="cls-31">
                      <g>
                        <polygon class="cls-32" points="249.95 206.69 283.68 195.25 284.86 198.82 251.07 210.15 249.95 206.69"/>
                        <polygon class="cls-33" points="249.95 206.69 243.75 210.48 251.07 210.15 249.95 206.69"/>
                        <path class="cls-33" d="M283.73,195.41l.83-.28a1.73,1.73,0,0,1,2.19,1.08h0a1.73,1.73,0,0,1-1.08,2.2l-.85.29Z"/>
                      </g>
                    </g>
                  </g>
                </g>
              </g>
            </g>
          </g>
          <g>
            <path class="cls-34" d="M339.28,24a21.15,21.15,0,0,0-2.41-8.74L340,12.84l-4.62-5.93-3.14,2.45a21.28,21.28,0,0,0-7.89-4.48l.5-3.95L317.39,0l-.49,4a21,21,0,0,0-8.74,2.41l-2.45-3.15-5.93,4.62L302.23,11a21,21,0,0,0-4.47,7.88l-4-.49-.93,7.46,4,.5a21,21,0,0,0,2.41,8.73l-3.15,2.45,4.63,5.94L303.86,41a21.14,21.14,0,0,0,7.88,4.47l-.49,4,7.47.92.49-4A21.3,21.3,0,0,0,327.94,44l2.45,3.14,5.94-4.62-2.45-3.15a21.14,21.14,0,0,0,4.47-7.88l4,.49.92-7.46ZM316.55,37.26a12.17,12.17,0,1,1,13.58-10.58A12.17,12.17,0,0,1,316.55,37.26Z"/>
            <path class="cls-34" d="M46,182.21a15.56,15.56,0,0,0-1.38-6.47l2.4-1.64-3.11-4.52-2.39,1.64A15.55,15.55,0,0,0,36,167.63l.53-2.86-5.4-1-.53,2.86A15.35,15.35,0,0,0,24.15,168l-1.64-2.4L18,168.71l1.64,2.39a15.71,15.71,0,0,0-3.6,5.54l-2.85-.53-1,5.4L15,182a15.51,15.51,0,0,0,1.38,6.46L14,190.14l3.11,4.52L19.51,193a15.57,15.57,0,0,0,5.54,3.6l-.53,2.85,5.4,1,.53-2.85a15.55,15.55,0,0,0,6.46-1.38l1.64,2.4,4.52-3.11-1.64-2.39A15.71,15.71,0,0,0,45,187.6l2.85.53,1-5.39Zm-17.12,8.63a8.87,8.87,0,1,1,10.34-7.1A8.87,8.87,0,0,1,28.91,190.84Z"/>
            <path class="cls-35" d="M58.76,230.92a19.32,19.32,0,0,0-1.71-8.07l3-2-3.88-5.65-3,2a19.35,19.35,0,0,0-6.92-4.49l.66-3.57-6.74-1.25-.66,3.57a19.14,19.14,0,0,0-8.07,1.72l-2.06-3-5.65,3.88,2.06,3a19.15,19.15,0,0,0-4.5,6.92l-3.57-.66-1.25,6.73,3.57.66a19.22,19.22,0,0,0,1.72,8.08l-3,2.05,3.88,5.65,3-2.06a19.15,19.15,0,0,0,6.92,4.5l-.66,3.57,6.74,1.25.66-3.57a19.17,19.17,0,0,0,8.07-1.72l2.06,3,5.64-3.88-2-3a19.26,19.26,0,0,0,4.49-6.92l3.57.66,1.25-6.73Zm-21.38,10.8a11.09,11.09,0,1,1,12.92-8.88A11.09,11.09,0,0,1,37.38,241.72Z"/>
            <path class="cls-35" d="M291,44.32a16.81,16.81,0,0,0-1.92-7l2.5-1.95-3.68-4.73-2.5,2a16.85,16.85,0,0,0-6.28-3.57l.4-3.14-5.95-.74-.39,3.15a16.66,16.66,0,0,0-7,1.92l-1.95-2.51-4.73,3.68,2,2.51A16.93,16.93,0,0,0,258,40.22l-3.15-.39-.74,5.94,3.15.39a17,17,0,0,0,1.92,7l-2.5,2,3.68,4.72,2.5-1.95a16.77,16.77,0,0,0,6.28,3.56l-.39,3.15,5.94.74.39-3.15A16.81,16.81,0,0,0,282,60.22l1.95,2.5L288.69,59l-1.95-2.5a17,17,0,0,0,3.56-6.27l3.15.39.74-5.95ZM273,54.86a9.69,9.69,0,1,1,10.8-8.42A9.69,9.69,0,0,1,273,54.86Z"/>
          </g>
          <g>
            <g>
              <rect class="cls-36" x="333.92" y="168.35" width="64.69" height="60.09" rx="10.91"/>
              <path class="cls-37" d="M369,214.44v2.86h-5v-3a21.69,21.69,0,0,1-11.61-5.08l4.9-5.85a16.48,16.48,0,0,0,10.3,3.81c2.4,0,3.67-.82,3.67-2.18s-1.08-1.72-5.39-2.72c-6.77-1.54-12-3.31-12-9.8,0-5.58,3.94-9.39,10.11-10.12V179.5h5v2.86a19.16,19.16,0,0,1,10.25,4.08l-4.4,6.22a15.58,15.58,0,0,0-8.89-3.13c-2.14,0-3.18.86-3.18,2,0,1.59,1.09,2.09,5.53,3,7.26,1.54,11.8,3.49,11.8,9.44S375.82,213.89,369,214.44Z"/>
            </g>
            <g>
              <rect class="cls-38" x="33.64" y="73.88" width="66.59" height="61.85" rx="10.91"/>
              <g class="cls-39">
                <rect class="cls-40" x="69.47" y="82.26" width="4.9" height="45.09"/>
                <rect class="cls-41" x="78.32" y="93.37" width="4.9" height="33.97"/>
                <rect class="cls-42" x="50.65" y="97.62" width="4.9" height="29.73"/>
                <rect class="cls-43" x="60.64" y="103.28" width="4.9" height="24.06"/>
              </g>
            </g>
            <g>
              <g>
                <path class="cls-44" d="M256.9,256.38v31.54a12.56,12.56,0,0,1-12.57,12.56H175.2a12.58,12.58,0,0,1-12.56-12.56V256.38a12.56,12.56,0,0,1,12.56-12.56h69.13A12.56,12.56,0,0,1,256.9,256.38Z"/>
                <path class="cls-45" d="M256.9,256.38v31.54a12.56,12.56,0,0,1-12.57,12.56H175.2a12.46,12.46,0,0,1-7-2.16l67.67-54.5h8.49A12.56,12.56,0,0,1,256.9,256.38Z"/>
              </g>
              <polygon class="cls-46" points="199.91 257.49 225.29 272.15 199.91 286.81 199.91 257.49"/>
            </g>
          </g>
        </g>
      </g>
    </g>
  </g>
</svg>
